<svg xmlns="http://www.w3.org/2000/svg" version="1.1" width="1606" height="412" viewBox="0 0 1606 412" role="img" aria-label="N2N Insurance Brokerage and Services">
<defs>
<clipPath id="clip_1">
<path transform="matrix(1,0,0,-1,0,412)" d="M0 412H1606V0H0Z"/>
</clipPath>
</defs>
<g clip-path="url(#clip_1)">
<path transform="matrix(1,0,0,-1,207.3477,160.5625)" d="M0 0C0-47.196-38.261-85.456-85.457-85.456-132.653-85.456-170.913-47.196-170.913 0-170.913 47.196-132.653 85.456-85.457 85.456-38.261 85.456 0 47.196 0 0" fill="#f4f0e8"/>
<path transform="matrix(1,0,0,-1,73.29,107.7637)" d="M0 0H19.939L73.327-64.277V1.312H97.201V-105.598H77.264L23.874-41.321V-106.909H0Z" fill="#0b2818"/>
<path transform="matrix(1,0,0,-1,568.5215,160.5625)" d="M0 0C0-47.196-38.26-85.456-85.456-85.456-132.652-85.456-170.912-47.196-170.912 0-170.912 47.196-132.652 85.456-85.456 85.456-38.26 85.456 0 47.196 0 0" fill="#f4f0e8"/>
<path transform="matrix(1,0,0,-1,434.4648,107.7637)" d="M0 0H19.938L73.327-64.277V1.312H97.201V-105.598H77.263L23.874-41.321V-106.909H0Z" fill="#0b2818"/>
<path transform="matrix(1,0,0,-1,387.9346,160.5625)" d="M0 0C0-47.196-38.26-85.456-85.456-85.456-132.652-85.456-170.913-47.196-170.913 0-170.913 47.196-132.652 85.456-85.456 85.456-38.26 85.456 0 47.196 0 0" fill="#d97757"/>
<path transform="matrix(1,0,0,-1,321.958,109.993198)" d="M0 0C5.726-2.887 10.12-6.867 13.184-11.938 16.242-17.011 17.773-22.783 17.773-29.253 17.773-33.104 17.053-36.841 15.609-40.469 14.167-44.099 11.717-48.208 8.264-52.8 4.808-57.39-.066-62.923-6.362-69.393L-21.71-85.265H19.873V-105.467H-56.603V-91.824L-21.578-55.751C-15.545-49.542-11.393-44.449-9.117-40.469-6.844-36.49-5.706-32.84-5.706-29.517-5.706-25.406-6.909-22.192-9.313-19.875-11.72-17.559-15.414-16.398-20.398-16.398-25.034-16.398-28.685-17.973-31.352-21.12-34.021-24.269-35.353-28.03-35.353-32.401H-58.833C-58.833-25.495-57.192-19.24-53.913-13.643-50.635-8.048-46.088-3.653-40.271-.46-34.456 2.731-27.832 4.328-20.398 4.328-12.527 4.328-5.729 2.884 0 0" fill="#f4f0e8"/>
<g class="logo-text" fill="#f4f0e8">
<path transform="matrix(1,0,0,-1,106.7686,343.208)" d="M0 0H6.313C9.404 0 11.821 .575 13.564 1.727 15.308 2.877 16.18 4.668 16.18 7.103 16.18 9.372 15.323 11.024 13.614 12.06 11.904 13.097 9.471 13.613 6.313 13.613H0ZM0 17.166H5.377C8.5 17.166 10.736 17.691 12.085 18.744 13.433 19.796 14.107 21.242 14.107 23.085 14.107 25.222 13.393 26.727 11.962 27.599 10.531 28.469 8.401 28.905 5.573 28.905H0ZM-4.538-3.65V32.506H6.166C8.632 32.506 10.794 32.21 12.652 31.618 14.51 31.026 15.965 30.089 17.018 28.807 18.069 27.524 18.597 25.813 18.597 23.677 18.597 22.492 18.391 21.366 17.979 20.298 17.568 19.229 16.968 18.308 16.18 17.535 15.39 16.763 14.436 16.195 13.318 15.833V15.587C15.456 15.192 17.215 14.271 18.597 12.824 19.978 11.377 20.668 9.421 20.668 6.955 20.668 4.587 20.084 2.621 18.917 1.06 17.749-.503 16.138-1.678 14.083-2.468 12.027-3.257 9.651-3.65 6.955-3.65Z"/>
<path transform="matrix(1,0,0,-1,168.2705,346.8584)" d="M0 0-9.471 16.524-5.87 18.941 5.13 0ZM-15.292 18.99H-9.224C-6.396 18.99-4.227 19.574-2.713 20.742-1.2 21.908-.444 23.677-.444 26.044-.444 28.412-1.2 30.072-2.713 31.026-4.227 31.98-6.396 32.457-9.224 32.457H-15.292ZM-19.829 0V36.156H-8.534C-6.067 36.156-3.889 35.836-1.998 35.194-.107 34.553 1.381 33.493 2.466 32.013 3.552 30.533 4.095 28.543 4.095 26.044 4.095 23.644 3.552 21.646 2.466 20.051 1.381 18.455-.107 17.271-1.998 16.5-3.889 15.727-6.067 15.34-8.534 15.34H-15.292V0Z"/>
<path transform="matrix(1,0,0,-1,209.8447,343.50489)" d="M0 0C2.17 0 4.062 .608 5.673 1.826 7.283 3.041 8.533 4.769 9.422 7.005 10.31 9.24 10.754 11.855 10.754 14.848 10.754 17.873 10.31 20.479 9.422 22.666 8.533 24.854 7.283 26.53 5.673 27.697 4.062 28.864 2.17 29.449 0 29.449-2.138 29.449-4.021 28.864-5.647 27.697-7.276 26.53-8.533 24.854-9.422 22.666-10.31 20.479-10.753 17.873-10.753 14.848-10.753 11.855-10.31 9.24-9.422 7.005-8.533 4.769-7.276 3.041-5.647 1.826-4.021 .608-2.138 0 0 0M0-3.995C-3.026-3.995-5.697-3.23-8.016-1.701-10.334-.173-12.151 2.006-13.466 4.834-14.782 7.662-15.439 11-15.439 14.848-15.439 18.729-14.782 22.058-13.466 24.836-12.151 27.615-10.334 29.745-8.016 31.225-5.697 32.704-3.026 33.444 0 33.444 3.025 33.444 5.697 32.696 8.016 31.199 10.334 29.703 12.15 27.574 13.467 24.812 14.781 22.049 15.439 18.729 15.439 14.848 15.439 11 14.781 7.662 13.467 4.834 12.15 2.006 10.334-.173 8.016-1.701 5.697-3.23 3.025-3.995 0-3.995"/>
<path transform="matrix(1,0,0,-1,246.2891,346.8584)" d="M0 0V36.156H4.539V18.004H4.638L19.781 36.156H24.961L13.614 22.443 26.687 0H21.605L10.754 18.843 4.539 11.443V0Z"/>
<path transform="matrix(1,0,0,-1,293.9814,346.8584)" d="M0 0V36.156H20.816V32.31H4.538V20.964H18.251V17.066H4.538V3.896H21.358V0Z"/>
<path transform="matrix(1,0,0,-1,356.1748,346.8584)" d="M0 0-9.472 16.524-5.87 18.941 5.13 0ZM-15.292 18.99H-9.225C-6.396 18.99-4.227 19.574-2.714 20.742-1.202 21.908-.444 23.677-.444 26.044-.444 28.412-1.202 30.072-2.714 31.026-4.227 31.98-6.396 32.457-9.225 32.457H-15.292ZM-19.83 0V36.156H-8.534C-6.067 36.156-3.89 35.836-1.998 35.194-.107 34.553 1.38 33.493 2.466 32.013 3.551 30.533 4.093 28.543 4.093 26.044 4.093 23.644 3.551 21.646 2.466 20.051 1.38 18.455-.107 17.271-1.998 16.5-3.89 15.727-6.067 15.34-8.534 15.34H-15.292V0Z"/>
<path transform="matrix(1,0,0,-1,0,412)" d="M388.672 79.791H405.345V76.19H388.672ZM382.309 65.142 394.542 101.298H399.623L411.905 65.142H407.071L400.758 85.365C400.1 87.438 399.475 89.467 398.883 91.458 398.292 93.446 397.699 95.494 397.107 97.599H396.91C396.35 95.494 395.767 93.446 395.158 91.458 394.55 89.467 393.934 87.438 393.309 85.365L386.896 65.142Z"/>
<path transform="matrix(1,0,0,-1,449.2373,347.5)" d="M0 0C-3.19 0-6.011 .74-8.459 2.22-10.909 3.699-12.834 5.837-14.23 8.632-15.629 11.427-16.327 14.781-16.327 18.694-16.327 21.622-15.916 24.245-15.094 26.562-14.272 28.882-13.113 30.846-11.616 32.458-10.121 34.068-8.369 35.302-6.363 36.157-4.357 37.012-2.154 37.439 .247 37.439 2.778 37.439 4.884 36.972 6.561 36.034 8.237 35.097 9.603 34.085 10.654 33L8.188 30.041C7.268 30.994 6.19 31.8 4.957 32.458 3.724 33.115 2.202 33.444 .395 33.444-2.039 33.444-4.161 32.852-5.969 31.668-7.777 30.484-9.175 28.799-10.161 26.611-11.148 24.425-11.642 21.835-11.642 18.843-11.642 15.785-11.172 13.146-10.235 10.926-9.298 8.706-7.925 6.995-6.116 5.796-4.309 4.595-2.121 3.995 .444 3.995 1.727 3.995 2.951 4.185 4.119 4.562 5.286 4.94 6.231 5.458 6.955 6.116V15.588H-.739V19.386H11.147V4.192C9.964 2.976 8.411 1.973 6.487 1.184 4.563 .395 2.4 0 0 0"/>
<path transform="matrix(1,0,0,-1,481.3896,346.8584)" d="M0 0V36.156H20.816V32.31H4.539V20.964H18.252V17.066H4.539V3.896H21.358V0Z"/>
<path transform="matrix(1,0,0,-1,0,412)" d="M55.501 155.363H60.557V115.076007H55.501Z"/>
<path transform="matrix(1,0,0,-1,93.1191,296.9238)" d="M0 0V40.287H5.166L19.896 14.895 24.238 6.595H24.513C24.329 8.61 24.164 10.717 24.018 12.916 23.871 15.114 23.799 17.258 23.799 19.347V40.287H28.635V0H23.414L8.738 25.447 4.396 33.692H4.178C4.287 31.676 4.414 29.614 4.561 27.508 4.708 25.401 4.781 23.285 4.781 21.16V0Z"/>
<path transform="matrix(1,0,0,-1,168.3867,297.6387)" d="M0 0C-2.858 0-5.487 .532-7.888 1.594-10.287 2.656-12.349 4.104-14.07 5.936L-11.048 9.453C-9.618 7.951-7.935 6.741-5.99 5.826-4.049 4.91-2.033 4.452 .056 4.452 2.729 4.452 4.81 5.057 6.293 6.266 7.776 7.475 8.519 9.05 8.519 10.993 8.519 12.422 8.217 13.557 7.611 14.4 7.007 15.243 6.2 15.947 5.193 16.517 4.186 17.084 3.04 17.643 1.759 18.192L-4.013 20.722C-5.259 21.271-6.514 21.967-7.777 22.809-9.041 23.651-10.095 24.751-10.938 26.107-11.781 27.463-12.201 29.111-12.201 31.054-12.201 33.143-11.652 34.984-10.554 36.578-9.454 38.171-7.952 39.426-6.046 40.342-4.142 41.258-1.961 41.717 .494 41.717 2.913 41.717 5.139 41.258 7.172 40.342 9.205 39.426 10.919 38.234 12.312 36.77L9.673 33.527C8.427 34.662 7.062 35.569 5.578 36.248 4.094 36.926 2.398 37.265 .494 37.265-1.778 37.265-3.6 36.742-4.975 35.698-6.349 34.654-7.036 33.233-7.036 31.438-7.036 30.12-6.697 29.039-6.019 28.196-5.341 27.353-4.489 26.675-3.463 26.162-2.438 25.649-1.394 25.154-.33 24.679L5.386 22.205C6.925 21.545 8.327 20.757 9.591 19.842 10.855 18.926 11.853 17.789 12.586 16.435 13.318 15.078 13.686 13.411 13.686 11.432 13.686 9.307 13.136 7.374 12.036 5.634 10.937 3.893 9.361 2.52 7.31 1.512 5.258 .504 2.82 0 0 0"/>
<path transform="matrix(1,0,0,-1,229.0898,297.6387)" d="M0 0C-2.052 0-3.958 .294-5.717 .88-7.476 1.465-9.006 2.437-10.306 3.792-11.606 5.147-12.623 6.943-13.356 9.18-14.09 11.413-14.456 14.126-14.456 17.312V41.002H-9.398V17.203C-9.398 13.979-8.979 11.44-8.135 9.591-7.293 7.74-6.166 6.422-4.755 5.634-3.344 4.846-1.759 4.452 0 4.452 1.795 4.452 3.407 4.846 4.836 5.634 6.266 6.422 7.41 7.74 8.271 9.591 9.132 11.44 9.563 13.979 9.563 17.203V41.002H14.454V17.312C14.454 14.126 14.098 11.413 13.384 9.18 12.669 6.943 11.651 5.147 10.333 3.792 9.014 2.437 7.475 1.465 5.716 .88 3.957 .294 2.052 0 0 0"/>
<path transform="matrix(1,0,0,-1,298.2021,296.9238)" d="M0 0-10.554 18.412-6.541 21.105 5.716 0ZM-17.038 21.16H-10.278C-7.127 21.16-4.709 21.81-3.023 23.111-1.339 24.411-.495 26.382-.495 29.02-.495 31.658-1.339 33.508-3.023 34.571-4.709 35.634-7.127 36.165-10.278 36.165H-17.038ZM-22.096 0V40.287H-9.509C-6.761 40.287-4.334 39.93-2.227 39.215-.119 38.501 1.538 37.319 2.747 35.671 3.957 34.021 4.561 31.804 4.561 29.02 4.561 26.345 3.957 24.118 2.747 22.342 1.538 20.563-.119 19.245-2.227 18.385-4.334 17.523-6.761 17.093-9.509 17.093H-17.038V0Z"/>
<path transform="matrix(1,0,0,-1,0,412)" d="M343.57 131.399H362.147V127.387H343.57ZM336.48 115.076 350.111 155.363H355.772L369.458 115.076H364.071L357.036 137.61C356.303 139.919 355.607 142.181 354.947 144.398 354.289 146.614 353.629 148.896 352.969 151.241H352.749C352.125 148.896 351.476 146.614 350.798 144.398 350.12 142.181 349.433 139.919 348.736 137.61L341.592 115.076Z"/>
<path transform="matrix(1,0,0,-1,402.0195,296.9238)" d="M0 0V40.287H5.167L19.896 14.895 24.239 6.595H24.514C24.33 8.61 24.165 10.717 24.02 12.916 23.873 15.114 23.799 17.258 23.799 19.347V40.287H28.637V0H23.414L8.739 25.447 4.397 33.692H4.178C4.287 31.676 4.416 29.614 4.562 27.508 4.709 25.401 4.782 23.285 4.782 21.16V0Z"/>
<path transform="matrix(1,0,0,-1,480.751,297.6387)" d="M0 0C-2.492 0-4.81 .467-6.952 1.401-9.096 2.337-10.956 3.701-12.531 5.496-14.107 7.291-15.335 9.481-16.214 12.064-17.094 14.647-17.533 17.569-17.533 20.831-17.533 24.092-17.085 27.015-16.187 29.598-15.289 32.181-14.034 34.37-12.421 36.166-10.81 37.96-8.922 39.335-6.76 40.288-4.599 41.239-2.235 41.717 .33 41.717 2.784 41.717 4.947 41.213 6.815 40.205 8.685 39.196 10.204 38.052 11.378 36.77L8.629 33.473C7.565 34.607 6.357 35.523 5.002 36.221 3.646 36.916 2.107 37.265 .385 37.265-2.143 37.265-4.361 36.604-6.266 35.286-8.171 33.967-9.655 32.089-10.718 29.651-11.781 27.215-12.312 24.329-12.312 20.995-12.312 17.588-11.799 14.647-10.772 12.174-9.747 9.701-8.299 7.795-6.431 6.458-4.562 5.12-2.345 4.452 .22 4.452 2.125 4.452 3.838 4.854 5.358 5.661 6.879 6.467 8.28 7.585 9.564 9.015L12.366 5.771C10.791 3.938 8.995 2.52 6.98 1.512 4.965 .504 2.639 0 0 0"/>
<path transform="matrix(1,0,0,-1,525.6797,296.9238)" d="M0 0V40.287H23.194V36H5.057V23.359H20.336V19.017H5.057V4.342H23.799V0Z"/>
<path transform="matrix(1,0,0,-1,0,412)" d="M721.613 314.605H739.89999V215.53302H721.613ZM695.261 312.445H713.261V219.421H695.261ZM679.709 278.605H700.157V263.19703H679.709ZM650.045 198.974H743.213V183.566H650.045ZM650.045 228.062H669.341V190.91H650.045ZM657.101 288.541C654.509 288.541 652.205 287.868 650.188 286.525 648.173 285.18 646.611 283.235 645.509 280.693 644.404 278.148 643.853 275.053 643.853 271.405 643.853 267.756 644.404 264.637 645.509 262.045 646.611 259.453 648.173 257.484 650.188 256.142 652.205 254.796 654.509 254.125 657.101 254.125 659.692 254.125 661.997 254.796 664.013 256.142 666.029 257.484 667.613 259.453 668.765 262.045 669.917 264.637 670.493 267.756 670.493 271.405 670.493 275.053 669.917 278.148 668.765 280.693 667.613 283.235 666.029 285.18 664.013 286.525 661.997 287.868 659.692 288.541 657.101 288.541M657.101 305.102C663.052 305.102 668.309 303.661 672.869 300.781 677.428 297.901 681.027 293.941 683.669 288.901 686.309 283.861 687.629 278.029 687.629 271.405 687.629 264.876 686.309 259.068 683.669 253.981 681.027 248.892 677.428 244.909 672.869 242.029 668.309 239.149 663.052 237.709 657.101 237.709 651.147 237.709 645.892 239.149 641.333 242.029 636.772 244.909 633.197 248.892 630.604 253.981 628.013 259.068 626.717 264.876 626.717 271.405 626.717 278.029 628.013 283.861 630.604 288.901 633.197 293.941 636.797 297.901 641.405 300.781 646.013 303.661 651.244 305.102 657.101 305.102"/>
<path transform="matrix(1,0,0,-1,0,412)" d="M809.309 230.221H828.46V181.11699H809.309ZM787.133 284.797H862.588V270.253H787.133ZM773.597 260.317H866.765V245.19699H773.597ZM773.597 309.421H865.469V294.445H792.604V256.861H773.597ZM758.62 235.549H879.436V219.997H758.62Z"/>
<path transform="matrix(1,0,0,-1,0,412)" d="M986.572 314.605H1004.859V215.53302H986.572ZM960.22 312.445H978.22V219.421H960.22ZM944.668 278.605H965.116V263.19703H944.668ZM915.004 198.974H1008.172V183.566H915.004ZM915.004 228.062H934.30007V190.91H915.004ZM922.06 288.541C919.468 288.541 917.164 287.868 915.147 286.525 913.132 285.18 911.57 283.235 910.468 280.693 909.363 278.148 908.812 275.053 908.812 271.405 908.812 267.756 909.363 264.637 910.468 262.045 911.57 259.453 913.132 257.484 915.147 256.142 917.164 254.796 919.468 254.125 922.06 254.125 924.651 254.125 926.956 254.796 928.972 256.142 930.988 257.484 932.572 259.453 933.724 262.045 934.876 264.637 935.452 267.756 935.452 271.405 935.452 275.053 934.876 278.148 933.724 280.693 932.572 283.235 930.988 285.18 928.972 286.525 926.956 287.868 924.651 288.541 922.06 288.541M922.06 305.102C928.011 305.102 933.268 303.661 937.828 300.781 942.387 297.901 945.986 293.941 948.628 288.901 951.268 283.861 952.588 278.029 952.588 271.405 952.588 264.876 951.268 259.068 948.628 253.981 945.986 248.892 942.387 244.909 937.828 242.029 933.268 239.149 928.011 237.709 922.06 237.709 916.106 237.709 910.851 239.149 906.292 242.029 901.731 244.909 898.156 248.892 895.563 253.981 892.972 259.068 891.676 264.876 891.676 271.405 891.676 278.029 892.972 283.861 895.563 288.901 898.156 293.941 901.756 297.901 906.364 300.781 910.972 303.661 916.203 305.102 922.06 305.102"/>
<path transform="matrix(1,0,0,-1,0,412)" d="M1074.412 240.877H1093.42V208.621H1074.412ZM1055.548 252.109H1112.2839V270.685H1055.548ZM1036.396 306.253H1055.548V285.661H1112.284V306.253H1131.292V236.845H1036.396ZM1023.725 212.365H1144.54V196.813H1023.725Z"/>
<path transform="matrix(1,0,0,-1,0,412)" d="M1248.508 314.605H1267.8041V234.10901H1248.508ZM1231.948 275.726H1256.284V260.173H1231.948ZM1248.939 213.518H1197.6749V197.822H1248.939ZM1186.012 315.757H1205.02V292.429H1186.012ZM1195.516 269.533C1192.827 269.533 1190.451 269.148 1188.388 268.381 1186.322 267.611 1184.716 266.509 1183.563 265.069 1182.412 263.629 1181.836 261.805 1181.836 259.597 1181.836 257.484 1182.412 255.685 1183.563 254.197 1184.716 252.708 1186.322 251.58 1188.388 250.813 1190.451 250.044 1192.827 249.661 1195.516 249.661 1198.299 249.661 1200.7 250.044 1202.716 250.813 1204.731 251.58 1206.315 252.708 1207.468 254.197 1208.62 255.685 1209.196 257.484 1209.196 259.597 1209.196 261.805 1208.62 263.629 1207.468 265.069 1206.315 266.509 1204.731 267.611 1202.716 268.381 1200.7 269.148 1198.299 269.533 1195.516 269.533M1178.812 228.493H1267.804V182.70099H1178.812ZM1195.516 283.646C1201.755 283.646 1207.274 282.637 1212.076 280.621 1216.875 278.605 1220.644 275.797 1223.38 272.197 1226.116 268.597 1227.483 264.443 1227.483 259.741 1227.483 254.939 1226.116 250.741 1223.38 247.142 1220.644 243.541 1216.875 240.733 1212.076 238.717 1207.274 236.701 1201.755 235.693 1195.516 235.693 1189.371 235.693 1183.874 236.701 1179.027 238.717 1174.179 240.733 1170.388 243.541 1167.651 247.142 1164.916 250.741 1163.548 254.939 1163.548 259.741 1163.548 264.443 1164.916 268.597 1167.651 272.197 1170.388 275.797 1174.179 278.605 1179.027 280.621 1183.874 282.637 1189.371 283.646 1195.516 283.646M1156.492 303.085H1234.3949V287.965H1156.492Z"/>
<path transform="matrix(1,0,0,-1,1345.1309,109.92291)" d="M0 0H16.849V-3.168C16.849-5.28 17.375-7.416 18.433-9.576 19.487-11.736 21.097-13.776 23.257-15.696 25.416-17.617 28.152-19.418 31.465-21.096 34.776-22.776 38.712-24.192 43.272-25.344 47.831-26.496 53.04-27.312 58.896-27.792L52.272-42.912C45.455-42.241 39.263-41.09 33.696-39.456 28.128-37.825 23.257-35.784 19.08-33.336 14.904-30.888 11.399-28.104 8.568-24.984 5.735-21.865 3.601-18.457 2.16-14.76 .721-11.065 0-7.2 0-3.168ZM-5.76-54.432H13.247999V-77.905H-5.76ZM3.456-87.12C-2.497-87.12-7.465-87.457-11.447-88.128-15.433-88.801-18.432-89.834-20.447-91.224-22.464-92.617-23.472-94.464-23.472-96.768-23.472-98.881-22.464-100.656-20.447-102.096-18.432-103.536-15.433-104.594-11.447-105.264-7.465-105.937-2.497-106.272 3.456-106.272 9.407-106.272 14.376-105.937 18.36-105.264 22.343-104.594 25.345-103.536 27.36-102.096 29.376-100.656 30.385-98.881 30.385-96.768 30.385-94.464 29.376-92.617 27.36-91.224 25.345-89.834 22.343-88.801 18.36-88.128 14.376-87.457 9.407-87.12 3.456-87.12M3.456-72.576C17.856-72.576 29.183-74.664 37.44-78.84 45.695-83.016 49.824-88.992 49.824-96.768 49.824-104.353 45.695-110.255 37.44-114.48 29.183-118.703 17.856-120.816 3.456-120.816-10.943-120.816-22.248-118.703-30.455-114.48-38.663-110.255-42.768-104.353-42.768-96.768-42.768-88.992-38.663-83.016-30.455-78.84-22.248-74.664-10.943-72.576 3.456-72.576M-45.504 7.056H53.279996V-8.063999H-45.504ZM-9.359 0H7.633V-3.168C7.633-7.2 6.912-11.041 5.473-14.688 4.032-18.338 1.895-21.722-.936-24.84-3.769-27.961-7.296-30.769-11.52-33.264-15.745-35.762-20.641-37.825-26.208-39.456-31.776-41.09-37.969-42.241-44.783-42.912L-51.407-27.792C-45.553-27.312-40.345-26.496-35.783-25.344-31.225-24.192-27.287-22.776-23.976-21.096-20.663-19.418-17.928-17.593-15.768-15.624-13.607-13.657-12.001-11.617-10.943-9.504-9.889-7.394-9.359-5.28-9.359-3.168ZM-56.592-47.952H64.08V-63.216H-56.592Z"/>
<path transform="matrix(1,0,0,-1,0,412)" d="M1517.067 314.749H1535.212V181.405H1517.067ZM1500.076 264.493H1522.2521V249.085H1500.076ZM1487.403 311.293H1505.403V187.16501H1487.403ZM1426.06 298.333H1465.9491V283.069H1426.06ZM1460.332 298.333H1478.764C1478.764 288.924 1477.972 279.996 1476.388 271.549 1474.804 263.101 1472.188 255.108 1468.54 247.573 1464.891 240.036 1459.972 233.029 1453.779 226.549 1447.588 220.069 1439.834 214.093 1430.523 208.621L1419.436 222.013C1429.516 227.965 1437.555 234.517 1443.556 241.669 1449.555 248.819 1453.852 256.739 1456.443 265.429 1459.036 274.116 1460.332 283.789 1460.332 294.445Z"/>
</g>
</g>
</svg>
